# xmcd
# 
# Track frame offsets:
#     150
#     15300
#     29862
#     43662
#     56197
#     76372
#     88050
#     102950
#     113572
#     128487
#     138600
#     153847
#     163522
#     179647
#     198937
#     211250
# 
# Disc length: 2992
# 
# Revision: 1
# Processed by: cddbd v1.5.2PL0 Copyright (c) Steve Scherf et al.
# Submitted via: BonkEnc v1.0rc1
# 
DISCID=d50bae10
DTITLE=Various Artist - CD1
DYEAR=0
DGENRE=Country
TTITLE0=Gunter Gabriel - Mein Laster ist mein Laster
TTITLE1=Tom Astor - Geistertruck
TTITLE2=The Kingston Trio - Tom Dooley
TTITLE3=Ralf PaulseR - Ich fahr'nen Supertruck
TTITLE4=Peter Orloff - Die Strasse
TTITLE5=Elfi Graf - Lüge Nr.1
TTITLE6=The Rangers - Amerika
TTITLE7=Frankie Laine - Sixteen Tons
TTITLE8=Dirk Maverick - Wenn Träume Flügel Kriegen
TTITLE9=Nashville Music Company - Deep in the Heart of Texas
TTITLE10=New Mavericks - Auf einene Faust
TTITLE11=Dave Duddley - Truck Drivin' Son-of-Gun
TTITLE12=Buddy Owensboro - Kuckuck
TTITLE13=Dusty Trail - Hey Mann
TTITLE14=Ralf Paulsen and Country Rose - Doch dann kamst Du
TTITLE15=Charly - Trucker Fieber
EXTD=
EXTT0=
EXTT1=
EXTT2=
EXTT3=
EXTT4=
EXTT5=
EXTT6=
EXTT7=
EXTT8=
EXTT9=
EXTT10=
EXTT11=
EXTT12=
EXTT13=
EXTT14=
EXTT15=
PLAYORDER=
